<?xml version="1.0" encoding="UTF-8" standalone="no"?>
<svg
   xmlns:dc="http://purl.org/dc/elements/1.1/"
   xmlns:cc="http://creativecommons.org/ns#"
   xmlns:rdf="http://www.w3.org/1999/02/22-rdf-syntax-ns#"
   xmlns:svg="http://www.w3.org/2000/svg"
   xmlns="http://www.w3.org/2000/svg"
   viewBox="0 0 377.95334 377.95334"
   height="377.95334"
   width="377.95334"
   xml:space="preserve"
   id="svg2"
   version="1.1"><metadata
     id="metadata8"><rdf:RDF><cc:Work
         rdf:about=""><dc:format>image/svg+xml</dc:format><dc:type
           rdf:resource="http://purl.org/dc/dcmitype/StillImage" /></cc:Work></rdf:RDF></metadata><defs
     id="defs6"><linearGradient
       id="linearGradient30"
       spreadMethod="pad"
       gradientTransform="matrix(147.963,134.09146,134.09146,-147.963,44.090729,92.818611)"
       gradientUnits="userSpaceOnUse"
       y2="0"
       x2="1"
       y1="0"
       x1="0"><stop
         id="stop24"
         offset="0"
         style="stop-opacity:1;stop-color:#5a4b98" /><stop
         id="stop26"
         offset="0.5"
         style="stop-opacity:1;stop-color:#e83b84" /><stop
         id="stop28"
         offset="1"
         style="stop-opacity:1;stop-color:#f4992c" /></linearGradient><linearGradient
       id="linearGradient52"
       spreadMethod="pad"
       gradientTransform="matrix(147.963,134.09146,134.09146,-147.963,65.51442,69.178673)"
       gradientUnits="userSpaceOnUse"
       y2="0"
       x2="1"
       y1="0"
       x1="0"><stop
         id="stop46"
         offset="0"
         style="stop-opacity:1;stop-color:#5a4b98" /><stop
         id="stop48"
         offset="0.5"
         style="stop-opacity:1;stop-color:#e83b84" /><stop
         id="stop50"
         offset="1"
         style="stop-opacity:1;stop-color:#f4992c" /></linearGradient></defs><g
     transform="matrix(1.3333333,0,0,-1.3333333,0,377.95333)"
     id="g10"><g
       id="g12"><g
         id="g14"><g
           id="g20"><g
             id="g22"><path
               id="path32"
               style="fill:url(#linearGradient30);stroke:none"
               d="m 123.194,124.231 h 36.53 v 113.656 h -36.53 z" /></g></g></g></g><g
       id="g34"><g
         id="g36"><g
           id="g42"><g
             id="g44"><path
               id="path54"
               style="fill:url(#linearGradient52);stroke:none"
               d="m 176.288,184.08 5.388,-5.183 c 11.05,-10.63 17.388,-25.608 17.388,-41.093 v 0 c 0,-31.857 -25.943,-57.775 -57.829,-57.775 v 0 c -31.886,0 -57.827,25.918 -57.827,57.775 v 0 c 0,15.516 6.048,29.758 17.487,41.191 v 0 l 5.19,5.185 -24.133,24.112 -5.18,-5.029 C 59.192,186.199 49.109,162.34 49.109,137.804 v 0 c 0,-50.759 41.329,-92.055 92.126,-92.055 v 0 c 50.798,0 92.126,41.296 92.126,92.055 v 0 c 0,24.899 -9.824,48.148 -27.663,65.459 v 0 l -5.182,5.029 z" /></g></g></g></g></g></svg>